<?xml version="1.0" encoding="UTF-8" standalone="no"?>
<svg xmlns="http://www.w3.org/2000/svg" width="360" height="240" viewBox="0 0 360 240" version="1.1"><g style="fill:none;stroke:#48c;stroke-width:15;stroke-linecap:round;stroke-linejoin:round">
<path style="fill:#48c;stroke:none;opacity:0.5" d="m282,35c-9,5-17,9-28,11-37,-34-85,-2-77,41-46,-3-75,-26-93,-47-9,26-7,42 14,60-7,-1-13,-2-20,-6 0,23 13,36 35,44-8,2-11,2-18,1 4,14 15,26 41,32-23,17-32,19-64,18 102,60 199,-26 195,-114 9,-8 17,-15 21,-23-8,4-16,6-24,6 10,-7 16,-15 18,-24z"><animate keyTimes="0;.37;.5;.87;1" id="a" attributeName="opacity" to=".5" begin="0s;a.end" dur="8s" values=".5;.5;.2;.2;.5"/></path>
<path d="M48,93c1,28-8,48 27,45M48,111h24M159,111v28M159,93ZM178,93c1,19-8,48 19,45M178,111h17M213,93c1,19-8,48 19,45M213,111h17M292,138c0,-17 0,-29 21,-27"><animate keyTimes="0;.37;.5;.87;1" attributeName="opacity" begin="a.begin" dur="8s" values="1;1;0;0;1"/></path>
<path d="m90,110c-3,24 6,27 12,28 18,1 14,-21 14,-27 0,6-2,25 11,28 7,-1 16,-1 14,-28"><animate keyTimes="0;.37;.5;.87;1" attributeName="d" begin="a.begin" dur="8s" values="m90,110c-3,24 6,27 12,28 18,1 14,-21 14,-27 0,6-2,25 11,28 7,-1 16,-1 14,-28;m90,110c-3,24 6,27 12,28 18,1 14,-21 14,-27 0,6-2,25 11,28 7,-1 16,-1 14,-28;m110,150c36,31 70,-3 83,-19-20,5-90,15-104,-25 23,5 66,9 83,-10-33,-9-59,-17-83,-41;m110,150c36,31 70,-3 83,-19-20,5-90,15-104,-25 23,5 66,9 83,-10-33,-9-59,-17-83,-41;m90,110c-3,24 6,27 12,28 18,1 14,-21 14,-27 0,6-2,25 11,28 7,-1 16,-1 14,-28"/></path>
<path style="stroke-width:10" d="m275,140c-25,5-29,-9-29,-15 0,-6 1,-16 15,-16 13,0 17,11 16,15-8,0-16,0-24,0"><animate keyTimes="0;.37;.5;.87;1" attributeName="d" begin="a.begin" dur="8s" values="m275,140c-25,5-29,-9-29,-15 0,-6 1,-16 15,-16 13,0 17,11 16,15-8,0-16,0-24,0;m275,140c-25,5-29,-9-29,-15 0,-6 1,-16 15,-16 13,0 17,11 16,15-8,0-16,0-24,0;m91,193c101,40 168,-45 170,-102 1,-19-3,-52-39,-55-31,0-43,25-39,47 2,21 18,53 64,43;m91,193c101,40 168,-45 170,-102 1,-19-3,-52-39,-55-31,0-43,25-39,47 2,21 18,53 64,43;m275,140c-25,5-29,-9-29,-15 0,-6 1,-16 15,-16 13,0 17,11 16,15-8,0-16,0-24,0"/></path>
</g></svg>