<?xml version="1.0" encoding="UTF-8" standalone="no"?>
<svg xmlns="http://www.w3.org/2000/svg" width="64" height="64" viewBox="0 0 64 64" version="1.1"><g style="fill:none;stroke:#000;stroke-width:2;stroke-linecap:round;stroke-linejoin:round;stroke-miterlimit:4;stroke-dasharray:600"><path style="stroke-dashoffset:600;stroke-width:2.5" d="m 20,23.5 c 2,-4 4,-7 5.5,-8 2,0 4,1 6,4"/><path style="stroke-dashoffset:620;stroke-width:2.5" d="m 31.5,22.5 c 3,-6 5,-6 6,-6 1,0 3,3 7,10"/><path style="stroke-dashoffset:660;stroke-width:3.5" d="m 26.5,26.5 v 0.5"/><path style="stroke-dashoffset:670;stroke-width:3.5" d="m 36.5,26.5 v 0.5"/><path style="stroke-dashoffset:680" d="m 29.5,34.5 h 5 L 32,38.5 29.5,34.5"/><path style="stroke-dashoffset:710" d="M 26.5,36.5 C 20,35 11,34 3,32"/><path style="stroke-dashoffset:735" d="M 26,39.5 C 19,39 13,39 6,40"/><path style="stroke-dashoffset:760" d="M 26,42 C 19,42 14,44 8,46"/><path style="stroke-dashoffset:785" d="m 38,37 c 8,-1 15,-2 24,-2"/><path style="stroke-dashoffset:810" d="m 39,39.5 c 8,0 14,0 19,2"/><path style="stroke-dashoffset:835" d="m 38,42 c 8,1 14,3 21,6"/><path style="stroke-dashoffset:870" d="m 28,46 c 3,2 5,3 8,0"/><path style="stroke-dashoffset:920;stroke-width:10;stroke:#fff" d="M 17,18 53,21 6,31 59,37 7,42 58,47"/><animate attributeType="CSS" attributeName="stroke-dasharray" from="600" to="1200" dur="15s" repeatCount="indefinite"/></g><g style="fill:none;stroke:#ccc;stroke-width:15;stroke-linecap:round;stroke-linejoin:round;stroke-miterlimit:4;stroke-dasharray:1 600 1 599; stroke-dashoffset:920"><path d="M 17,18 53,21 6,31 59,37 7,42 58,47"/><animate attributeType="CSS" attributeName="stroke-dashoffset" from="920" to="320" dur="15s" repeatCount="indefinite"/></g></svg>
